<svg width="25" height="26" viewBox="0 0 25 26" fill="none" xmlns="http://www.w3.org/2000/svg">
<path d="M19.6994 25.2725H5.27041C4.46767 25.2723 3.67557 25.0922 2.95453 24.746C2.23349 24.3997 1.60255 23.8964 1.10985 23.2744C0.617142 22.6524 0.275682 21.9283 0.111513 21.1571C-0.0526554 20.3859 -0.0351963 19.5881 0.162559 18.8246L3.08683 7.10885C3.13949 6.89939 3.26368 6.71395 3.4387 6.5834C3.61372 6.45286 3.82902 6.38509 4.04876 6.39137H20.1611C20.3733 6.38184 20.5827 6.44149 20.7567 6.56104C20.9307 6.68058 21.0595 6.85328 21.123 7.05221L24.7591 18.5319C25.0077 19.3116 25.065 20.138 24.9262 20.9435C24.7875 21.7491 24.4566 22.511 23.9607 23.1672C23.4729 23.8262 22.8316 24.3611 22.0903 24.7273C21.349 25.0936 20.5293 25.2805 19.6994 25.2725ZM4.77021 8.27948L1.99023 19.2777C1.86643 19.763 1.85651 20.2695 1.96121 20.759C2.06592 21.2486 2.28251 21.7084 2.59466 22.1039C2.90681 22.4993 3.30638 22.82 3.76322 23.0418C4.22006 23.2636 4.72225 23.3808 5.23193 23.3844H19.6609C20.1844 23.3852 20.7006 23.2641 21.1672 23.0311C21.6337 22.798 22.0373 22.4597 22.3447 22.0438C22.6609 21.6256 22.872 21.1399 22.9606 20.6264C23.0492 20.1128 23.0128 19.586 22.8545 19.0889L19.4685 8.27948H4.77021Z" fill="black"/>
<path d="M16.3132 13.9441C16.058 13.9441 15.8134 13.8446 15.633 13.6676C15.4526 13.4905 15.3512 13.2504 15.3512 13V5.44757C15.3512 4.69644 15.0472 3.97606 14.506 3.44493C13.9648 2.91379 13.2308 2.61541 12.4654 2.61541C11.7001 2.61541 10.9661 2.91379 10.4249 3.44493C9.88368 3.97606 9.57965 4.69644 9.57965 5.44757V13C9.57965 13.2504 9.4783 13.4905 9.2979 13.6676C9.11751 13.8446 8.87284 13.9441 8.61772 13.9441C8.3626 13.9441 8.11792 13.8446 7.93753 13.6676C7.75713 13.4905 7.65578 13.2504 7.65578 13V5.44757C7.65578 4.19568 8.16251 2.99506 9.0645 2.10983C9.96648 1.22461 11.1898 0.727295 12.4654 0.727295C13.741 0.727295 14.9644 1.22461 15.8664 2.10983C16.7684 2.99506 17.2751 4.19568 17.2751 5.44757V13C17.2751 13.2504 17.1737 13.4905 16.9934 13.6676C16.813 13.8446 16.5683 13.9441 16.3132 13.9441Z" fill="black"/>
</svg>
