<svg width="22" height="26" viewBox="0 0 22 26" fill="none" xmlns="http://www.w3.org/2000/svg">
<path d="M18.0193 13.1515C17.9296 13.0641 17.8233 12.9949 17.7064 12.9478C17.5895 12.9008 17.4643 12.8768 17.338 12.8772C17.2117 12.8776 17.0867 12.9025 16.9701 12.9504C16.8535 12.9983 16.7477 13.0682 16.6587 13.1562C16.5697 13.2442 16.4992 13.3486 16.4513 13.4634C16.4033 13.5782 16.3789 13.7011 16.3793 13.8251C16.3798 13.9492 16.4051 14.0719 16.4539 14.1863C16.5026 14.3008 16.5739 14.4047 16.6635 14.4921C17.4771 15.2824 18.123 16.2234 18.5637 17.2605C19.0044 18.2976 19.2311 19.4103 19.2308 20.534C19.2308 21.6858 15.8558 23.3662 10.577 23.3662C5.29814 23.3662 1.92314 21.6858 1.92314 20.534C1.92161 19.4177 2.14416 18.312 2.57808 17.2801C3.01199 16.2483 3.64876 15.3105 4.45198 14.5204C4.63107 14.3435 4.73159 14.1042 4.73159 13.8548C4.73159 13.6054 4.63107 13.3661 4.45198 13.1893C4.27183 13.0134 4.02812 12.9147 3.7741 12.9147C3.52007 12.9147 3.27637 13.0134 3.09621 13.1893C2.11074 14.1514 1.32961 15.2961 0.798127 16.5569C0.266644 17.8177 -0.00462223 19.1695 5.95845e-05 20.534C5.95845e-05 23.6022 5.45198 25.2543 10.577 25.2543C15.702 25.2543 21.1539 23.6022 21.1539 20.534C21.1576 19.1607 20.8823 17.8004 20.344 16.5327C19.8058 15.2651 19.0155 14.1156 18.0193 13.1515Z" fill="black"/>
<path d="M10.5769 13.9258C11.9082 13.9258 13.2095 13.5382 14.3163 12.8121C15.4232 12.0859 16.2859 11.0538 16.7954 9.8463C17.3048 8.63878 17.4381 7.31005 17.1784 6.02815C16.9187 4.74624 16.2776 3.56874 15.3363 2.64454C14.395 1.72034 13.1957 1.09095 11.89 0.835966C10.5844 0.580979 9.23106 0.711848 8.00118 1.21202C6.77129 1.71219 5.72009 2.55921 4.9805 3.64595C4.24091 4.7327 3.84616 6.01036 3.84616 7.31738C3.84616 9.07003 4.55529 10.7509 5.81756 11.9902C7.07982 13.2295 8.79182 13.9258 10.5769 13.9258ZM10.5769 2.5971C11.5278 2.5971 12.4573 2.87394 13.2479 3.39261C14.0386 3.91128 14.6548 4.64849 15.0187 5.51101C15.3825 6.37352 15.4778 7.32262 15.2922 8.23826C15.1067 9.1539 14.6489 9.99498 13.9765 10.6551C13.3041 11.3153 12.4475 11.7648 11.5149 11.947C10.5823 12.1291 9.6156 12.0356 8.73711 11.6783C7.85862 11.3211 7.10776 10.7161 6.57948 9.93983C6.0512 9.16358 5.76924 8.25096 5.76924 7.31738C5.76924 6.06548 6.27576 4.86486 7.17738 3.97964C8.079 3.09441 9.30185 2.5971 10.5769 2.5971Z" fill="black"/>
</svg>
