<svg width="26" height="27" viewBox="0 0 26 27" fill="none" xmlns="http://www.w3.org/2000/svg">
<path d="M3.01761 20.0194C1.70136 18.0853 1 15.8134 1 13.4909C1 10.377 2.25974 7.38682 4.5082 5.17924C6.75729 2.97105 9.81154 1.72729 13 1.72729C15.3774 1.72729 17.7 2.41955 19.6739 3.71449C21.6476 5.0093 23.1831 6.84774 24.0891 8.9952C24.995 11.1425 25.2317 13.5042 24.7701 15.7824C24.3085 18.0608 23.1687 20.1562 21.4918 21.8026C19.8147 23.4492 17.6758 24.5726 15.3445 25.0278C13.0131 25.4832 10.5968 25.2493 8.40183 24.3567C6.20701 23.4641 4.33401 21.9537 3.01761 20.0194Z" fill="white" stroke="black" stroke-width="2"/>
<path d="M18.6871 17.5514V19.9087C18.6871 20.0043 18.6487 20.096 18.5803 20.1639C18.5118 20.2319 18.4188 20.2706 18.3215 20.2717H7.31211C7.21477 20.2706 7.12178 20.2319 7.05333 20.1639C6.98487 20.096 6.94648 20.0043 6.94649 19.9087V17.5514C6.94649 15.6488 9.57492 14.1052 12.8168 14.1052C16.0587 14.1052 18.6871 15.6488 18.6871 17.5514Z" stroke="black" stroke-width="2" stroke-miterlimit="10" stroke-linecap="round"/>
<path d="M12.8168 11.6402C14.2572 11.6402 15.4249 10.5366 15.4249 9.17518C15.4249 7.81381 14.2572 6.71021 12.8168 6.71021C11.3764 6.71021 10.2087 7.81381 10.2087 9.17518C10.2087 10.5366 11.3764 11.6402 12.8168 11.6402Z" stroke="black" stroke-width="2" stroke-miterlimit="10" stroke-linecap="round"/>
</svg>
