<svg width="20" height="25" viewBox="0 0 20 25" fill="none" xmlns="http://www.w3.org/2000/svg">
<path d="M19.6429 0.892857V24.1071C19.6429 24.3439 19.5488 24.571 19.3813 24.7385C19.2139 24.9059 18.9868 25 18.75 25H0.892857C0.656057 25 0.428955 24.9059 0.261512 24.7385C0.0940688 24.571 0 24.3439 0 24.1071V22.3214H1.78571V23.2143H17.8571V1.78571H1.78571V4.46429H0V0.892857C0 0.656057 0.0940688 0.428955 0.261512 0.261512C0.428955 0.0940686 0.656057 0 0.892857 0H18.75C18.9868 0 19.2139 0.0940686 19.3813 0.261512C19.5488 0.428955 19.6429 0.656057 19.6429 0.892857ZM6.50893 16.3304L7.77679 17.5982L12.2411 13.1339C12.3248 13.0509 12.3912 12.9522 12.4365 12.8434C12.4818 12.7346 12.5052 12.6179 12.5052 12.5C12.5052 12.3821 12.4818 12.2654 12.4365 12.1566C12.3912 12.0478 12.3248 11.9491 12.2411 11.8661L7.77679 7.40179L6.50893 8.66964L9.45536 11.6071H0V13.3929H9.45536L6.50893 16.3304Z" fill="black"/>
</svg>
