<svg width="1062" height="230" viewBox="0 0 1062 230" fill="none" xmlns="http://www.w3.org/2000/svg">
<path fill-rule="evenodd" clip-rule="evenodd" d="M117 25C117 11.1929 105.807 0 92 0H25C11.1929 0 0 11.1929 0 25V55.5C0 58.5376 2.46243 61 5.5 61V61C8.53757 61 11 58.5376 11 55.5V26C11 17.7157 17.7157 11 26 11H91C99.2843 11 106 17.7157 106 26V55.5C106 58.5376 108.462 61 111.5 61V61C114.538 61 117 58.5376 117 55.5V25Z" fill="#FF3D34"/>
<path d="M27.5 75.0167C32.4641 75.0167 36.5 70.8593 36.5 65.7458C36.5 60.6323 32.4641 56.4749 27.5 56.4749C22.5359 56.4749 18.5 60.6323 18.5 65.7458C18.5 70.8593 22.5359 75.0167 27.5 75.0167ZM90.5 75.0167C95.4641 75.0167 99.5 70.8593 99.5 65.7458C99.5 60.6323 95.4641 56.4749 90.5 56.4749C85.5359 56.4749 81.5 60.6323 81.5 65.7458C81.5 70.8593 85.5359 75.0167 90.5 75.0167ZM95 79.6521H86C83.525 79.6521 81.2891 80.6806 79.6578 82.3465C85.325 85.5479 89.3469 91.3277 90.2188 98.1939H99.5C101.989 98.1939 104 96.1225 104 93.5585V88.923C104 83.8096 99.9641 79.6521 95 79.6521ZM59 79.6521C67.7047 79.6521 74.75 72.3948 74.75 63.4281C74.75 54.4614 67.7047 47.204 59 47.204C50.2953 47.204 43.25 54.4614 43.25 63.4281C43.25 72.3948 50.2953 79.6521 59 79.6521ZM69.8 84.2876H68.6328C65.7078 85.7362 62.4594 86.6053 59 86.6053C55.5406 86.6053 52.3062 85.7362 49.3672 84.2876H48.2C39.2563 84.2876 32 91.7623 32 100.975V105.147C32 108.986 35.0234 112.1 38.75 112.1H79.25C82.9766 112.1 86 108.986 86 105.147V100.975C86 91.7623 78.7437 84.2876 69.8 84.2876ZM38.3422 82.3465C36.7109 80.6806 34.475 79.6521 32 79.6521H23C18.0359 79.6521 14 83.8096 14 88.923V93.5585C14 96.1225 16.0109 98.1939 18.5 98.1939H27.7672C28.6531 91.3277 32.675 85.5479 38.3422 82.3465Z" fill="#FF3D34"/>
<path d="M27 199V225C27 225.265 26.8946 225.52 26.7071 225.707C26.5196 225.895 26.2652 226 26 226H6C5.73478 226 5.48043 225.895 5.29289 225.707C5.10536 225.52 5 225.265 5 225V223H7V224H25V200H7V203H5V199C5 198.735 5.10536 198.48 5.29289 198.293C5.48043 198.105 5.73478 198 6 198H26C26.2652 198 26.5196 198.105 26.7071 198.293C26.8946 198.48 27 198.735 27 199ZM12.29 216.29L13.71 217.71L18.71 212.71C18.8037 212.617 18.8781 212.506 18.9289 212.385C18.9797 212.263 19.0058 212.132 19.0058 212C19.0058 211.868 18.9797 211.737 18.9289 211.615C18.8781 211.494 18.8037 211.383 18.71 211.29L13.71 206.29L12.29 207.71L15.59 211H5V213H15.59L12.29 216.29Z" fill="white"/>
<path d="M1033 65C1033 70.5625 1037.44 75 1043 75C1044.75 75 1046.5 74.5625 1047.94 73.6875L1043.44 68.3125C1042.75 67.4375 1042.81 66.1875 1043.69 65.5C1044.56 64.8125 1045.81 64.875 1046.5 65.75L1050.94 71.0625C1052.19 69.375 1053 67.3125 1053 65C1053 59.5 1048.5 55 1043 55C1037.44 55 1033 59.5 1033 65ZM1050.5 76.8125C1048.38 78.1875 1045.75 79 1043 79C1035.25 79 1029 72.75 1029 65C1029 57.3125 1035.25 51 1043 51C1050.69 51 1057 57.3125 1057 65C1057 68.5625 1055.69 71.75 1053.56 74.1875L1056.5 77.75C1057.19 78.625 1057.12 79.875 1056.25 80.5625C1055.38 81.25 1054.12 81.1875 1053.44 80.3125L1050.5 76.8125Z" fill="white"/>
<path d="M1034.57 219C1034.57 218.696 1034.3 218.429 1034 218.429H1030.57C1030.27 218.429 1030 218.696 1030 219V222.429C1030 222.732 1030.27 223 1030.57 223H1034C1034.3 223 1034.57 222.732 1034.57 222.429V219ZM1034.57 212.143C1034.57 211.839 1034.3 211.571 1034 211.571H1030.57C1030.27 211.571 1030 211.839 1030 212.143V215.571C1030 215.875 1030.27 216.143 1030.57 216.143H1034C1034.3 216.143 1034.57 215.875 1034.57 215.571V212.143ZM1034.57 205.286C1034.57 204.982 1034.3 204.714 1034 204.714H1030.57C1030.27 204.714 1030 204.982 1030 205.286V208.714C1030 209.018 1030.27 209.286 1030.57 209.286H1034C1034.3 209.286 1034.57 209.018 1034.57 208.714V205.286ZM1062 219C1062 218.696 1061.73 218.429 1061.43 218.429H1037.43C1037.13 218.429 1036.86 218.696 1036.86 219V222.429C1036.86 222.732 1037.13 223 1037.43 223H1061.43C1061.73 223 1062 222.732 1062 222.429V219ZM1034.57 198.429C1034.57 198.125 1034.3 197.857 1034 197.857H1030.57C1030.27 197.857 1030 198.125 1030 198.429V201.857C1030 202.161 1030.27 202.429 1030.57 202.429H1034C1034.3 202.429 1034.57 202.161 1034.57 201.857V198.429ZM1062 212.143C1062 211.839 1061.73 211.571 1061.43 211.571H1037.43C1037.13 211.571 1036.86 211.839 1036.86 212.143V215.571C1036.86 215.875 1037.13 216.143 1037.43 216.143H1061.43C1061.73 216.143 1062 215.875 1062 215.571V212.143ZM1062 205.286C1062 204.982 1061.73 204.714 1061.43 204.714H1037.43C1037.13 204.714 1036.86 204.982 1036.86 205.286V208.714C1036.86 209.018 1037.13 209.286 1037.43 209.286H1061.43C1061.73 209.286 1062 209.018 1062 208.714V205.286ZM1062 198.429C1062 198.125 1061.73 197.857 1061.43 197.857H1037.43C1037.13 197.857 1036.86 198.125 1036.86 198.429V201.857C1036.86 202.161 1037.13 202.429 1037.43 202.429H1061.43C1061.73 202.429 1062 202.161 1062 201.857V198.429Z" fill="white"/>
<path d="M376 46.1429C376 45.8398 376.112 45.5491 376.312 45.3347C376.512 45.1204 376.784 45 377.067 45H380.267C380.505 45.0001 380.736 45.0854 380.923 45.2423C381.111 45.3993 381.244 45.6189 381.301 45.8663L382.165 49.5714H406.934C407.096 49.5715 407.256 49.6111 407.401 49.6872C407.547 49.7633 407.674 49.874 407.774 50.0108C407.874 50.1476 407.943 50.307 407.977 50.4768C408.01 50.6466 408.008 50.8224 407.968 50.9909L404.768 64.7051C404.711 64.9525 404.578 65.1721 404.39 65.3291C404.203 65.4861 403.972 65.5714 403.734 65.5714H384.533C384.295 65.5714 384.064 65.4861 383.877 65.3291C383.689 65.1721 383.556 64.9525 383.499 64.7051L379.435 47.2857H377.067C376.784 47.2857 376.512 47.1653 376.312 46.951C376.112 46.7367 376 46.446 376 46.1429ZM382.699 51.8571L383.765 56.4286H386.667V51.8571H382.699ZM388.8 51.8571V56.4286H393.067V51.8571H388.8ZM395.2 51.8571V56.4286H399.467V51.8571H395.2ZM401.6 51.8571V56.4286H404.502L405.568 51.8571H401.6ZM403.968 58.7143H401.6V63.2857H402.902L403.968 58.7143ZM399.467 58.7143H395.2V63.2857H399.467V58.7143ZM393.067 58.7143H388.8V63.2857H393.067V58.7143ZM386.667 58.7143H384.299L385.365 63.2857H386.667V58.7143ZM386.667 70.1429C386.101 70.1429 385.558 70.3837 385.158 70.8123C384.758 71.241 384.533 71.8224 384.533 72.4286C384.533 73.0348 384.758 73.6162 385.158 74.0448C385.558 74.4735 386.101 74.7143 386.667 74.7143C387.233 74.7143 387.775 74.4735 388.175 74.0448C388.575 73.6162 388.8 73.0348 388.8 72.4286C388.8 71.8224 388.575 71.241 388.175 70.8123C387.775 70.3837 387.233 70.1429 386.667 70.1429ZM382.4 72.4286C382.4 71.2162 382.85 70.0534 383.65 69.1961C384.45 68.3388 385.535 67.8571 386.667 67.8571C387.798 67.8571 388.884 68.3388 389.684 69.1961C390.484 70.0534 390.933 71.2162 390.933 72.4286C390.933 73.641 390.484 74.8037 389.684 75.6611C388.884 76.5184 387.798 77 386.667 77C385.535 77 384.45 76.5184 383.65 75.6611C382.85 74.8037 382.4 73.641 382.4 72.4286ZM401.6 70.1429C401.034 70.1429 400.492 70.3837 400.092 70.8123C399.692 71.241 399.467 71.8224 399.467 72.4286C399.467 73.0348 399.692 73.6162 400.092 74.0448C400.492 74.4735 401.034 74.7143 401.6 74.7143C402.166 74.7143 402.709 74.4735 403.109 74.0448C403.509 73.6162 403.734 73.0348 403.734 72.4286C403.734 71.8224 403.509 71.241 403.109 70.8123C402.709 70.3837 402.166 70.1429 401.6 70.1429ZM397.334 72.4286C397.334 71.2162 397.783 70.0534 398.583 69.1961C399.383 68.3388 400.469 67.8571 401.6 67.8571C402.732 67.8571 403.817 68.3388 404.617 69.1961C405.417 70.0534 405.867 71.2162 405.867 72.4286C405.867 73.641 405.417 74.8037 404.617 75.6611C403.817 76.5184 402.732 77 401.6 77C400.469 77 399.383 76.5184 398.583 75.6611C397.783 74.8037 397.334 73.641 397.334 72.4286Z" fill="#FF3D34"/>
<path d="M398 201.245C398 200.015 398.412 198.823 399.165 197.88C399.918 196.936 400.963 196.3 402.118 196.082C403.272 195.865 404.463 196.081 405.482 196.691C406.5 197.302 407.281 198.269 407.689 199.423C408.096 200.577 408.104 201.844 407.71 203.004C407.317 204.163 406.547 205.14 405.536 205.764C404.525 206.389 403.337 206.62 402.18 206.418C401.023 206.217 399.97 205.594 399.206 204.661L385.77 211.206C386.079 212.233 386.079 213.334 385.77 214.361L399.206 220.907C400.014 219.921 401.141 219.286 402.37 219.123C403.6 218.96 404.842 219.281 405.858 220.025C406.874 220.768 407.591 221.881 407.869 223.147C408.148 224.414 407.968 225.743 407.365 226.878C406.762 228.013 405.779 228.873 404.606 229.292C403.433 229.71 402.154 229.656 401.017 229.142C399.879 228.627 398.964 227.687 398.45 226.505C397.935 225.324 397.857 223.983 398.23 222.744L384.794 216.199C384.129 217.012 383.243 217.592 382.254 217.861C381.265 218.129 380.222 218.074 379.264 217.702C378.306 217.33 377.48 216.659 376.896 215.78C376.313 214.901 376 213.855 376 212.784C376 211.712 376.313 210.667 376.896 209.787C377.48 208.908 378.306 208.237 379.264 207.865C380.222 207.493 381.265 207.438 382.254 207.707C383.243 207.975 384.129 208.555 384.794 209.368L398.23 202.823C398.077 202.312 398 201.78 398 201.245Z" fill="#FF3D34"/>
<path fill-rule="evenodd" clip-rule="evenodd" d="M683 55.472L684.788 51.894C685.232 51.008 686.002 49.734 687.092 48.704C688.164 47.69 689.448 47 691 47C694.352 47 697 49.652 697 52.84C697 55.262 695.892 56.972 693.264 59.58C692.59 60.248 691.822 60.97 690.972 61.766C688.756 63.846 686 66.434 683 69.894C680 66.434 677.244 63.846 675.028 61.766C674.178 60.97 673.408 60.246 672.736 59.58C670.108 56.972 669 55.262 669 52.84C669 49.652 671.648 47 675 47C676.552 47 677.836 47.69 678.908 48.704C679.998 49.734 680.768 51.008 681.212 51.894L683 55.472ZM683.784 72.056C683.688 72.1701 683.568 72.2618 683.432 72.3247C683.297 72.3876 683.149 72.4202 683 72.4202C682.851 72.4202 682.703 72.3876 682.568 72.3247C682.432 72.2618 682.312 72.1701 682.216 72.056C679.014 68.252 676.116 65.532 673.73 63.294C669.6 59.416 667 56.978 667 52.84C667 48.51 670.58 45 675 45C678.2 45 680.438 47.1 681.808 49.016C682.328 49.746 682.724 50.448 683 51C683.346 50.3091 683.744 49.6459 684.192 49.016C685.562 47.098 687.8 45 691 45C695.42 45 699 48.51 699 52.84C699 56.978 696.4 59.416 692.27 63.294C689.884 65.534 686.986 68.256 683.784 72.056Z" fill="#FF534B"/>
<path fill-rule="evenodd" clip-rule="evenodd" d="M683 206.472L684.788 202.894C685.232 202.008 686.002 200.734 687.092 199.704C688.164 198.69 689.448 198 691 198C694.352 198 697 200.652 697 203.84C697 206.262 695.892 207.972 693.264 210.58C692.59 211.248 691.822 211.97 690.972 212.766C688.756 214.846 686 217.434 683 220.894C680 217.434 677.244 214.846 675.028 212.766C674.178 211.97 673.408 211.246 672.736 210.58C670.108 207.972 669 206.262 669 203.84C669 200.652 671.648 198 675 198C676.552 198 677.836 198.69 678.908 199.704C679.998 200.734 680.768 202.008 681.212 202.894L683 206.472ZM683.784 223.056C683.688 223.17 683.568 223.262 683.432 223.325C683.297 223.388 683.149 223.42 683 223.42C682.851 223.42 682.703 223.388 682.568 223.325C682.432 223.262 682.312 223.17 682.216 223.056C679.014 219.252 676.116 216.532 673.73 214.294C669.6 210.416 667 207.978 667 203.84C667 199.51 670.58 196 675 196C678.2 196 680.438 198.1 681.808 200.016C682.328 200.746 682.724 201.448 683 202C683.346 201.309 683.744 200.646 684.192 200.016C685.562 198.098 687.8 196 691 196C695.42 196 699 199.51 699 203.84C699 207.978 696.4 210.416 692.27 214.294C689.884 216.534 686.986 219.256 683.784 223.056Z" fill="#FF534B"/>
<path d="M688.5 198H693.5L696.5 200L697 203.5V207.5L683 221.5L673.5 212L668.5 205.5L669 200.5L672 198L677 197.5L680 200.5L683 205L685.5 201L688.5 198Z" fill="#FF534B"/>
</svg>
